<svg xmlns="http://www.w3.org/2000/svg" viewBox="0 0 500 500"><defs><style>.cls-1{fill:#52e2de;}.cls-2{fill:#db7112;}.cls-3{fill:#422d59;}.cls-4{fill:#e5b92c;}.cls-5{fill:#2fa3d1;}.cls-6{fill:#55bf1d;stroke:#422d59;stroke-miterlimit:10;stroke-width:8px;}</style></defs><g id="BG"><rect class="cls-1" width="500" height="500"/></g><g id="Слой_1" data-name="Слой 1"><g id="palette"><path class="cls-2" d="M232.17,351.13a72.76,72.76,0,0,1-31.58-7c-21.5-10.26-36.71-30.56-42.83-57.16-6.22-27-2.33-57.22,11-85,20.46-42.88,60.25-71.68,99-71.68a72.8,72.8,0,0,1,31.58,7c44.79,21.38,59.1,85.17,31.88,142.19-20.46,42.88-60.26,71.68-99,71.68Zm24.06-202.25a33.35,33.35,0,0,0-11.57,2.17,30.86,30.86,0,0,0-14.24,10.43c-3.62,5-4.65,10.72-2.81,15.62,2.45,6.53,9.5,10.58,18.4,10.58a33.35,33.35,0,0,0,11.57-2.17c13.18-4.94,20.67-16.38,17.05-26C272.18,152.93,265.13,148.88,256.23,148.88Z"/><path class="cls-3" d="M267.73,135.22a67.71,67.71,0,0,1,29.42,6.55c42.31,20.2,55.56,81,29.53,135.53-9.93,20.8-24.41,38.33-41.88,50.71-16.74,11.85-34.94,18.12-52.63,18.12a67.79,67.79,0,0,1-29.43-6.55c-42.3-20.2-55.55-81-29.52-135.53,9.93-20.8,24.41-38.33,41.88-50.71,16.74-11.85,34.94-18.12,52.63-18.12M246,192.68a38.59,38.59,0,0,0,13.33-2.48A36,36,0,0,0,275.88,178c4.61-6.41,5.86-13.81,3.43-20.3-3.2-8.53-12-13.83-23.08-13.83a38.38,38.38,0,0,0-13.33,2.49,35.91,35.91,0,0,0-16.54,12.19c-4.61,6.41-5.86,13.8-3.43,20.29,3.2,8.53,12,13.83,23.08,13.83m21.72-67.46c-39.73,0-81.52,28.39-103.54,74.53C135.74,259.35,151.08,326,198.44,348.6a77.78,77.78,0,0,0,33.73,7.53c39.73,0,81.51-28.39,103.53-74.53,28.45-59.6,13.12-126.25-34.24-148.85a77.78,77.78,0,0,0-33.73-7.53ZM246,182.68c-6.54,0-11.95-2.64-13.72-7.34-2.6-6.93,3.72-15.71,14.12-19.61a28.07,28.07,0,0,1,9.82-1.85c6.54,0,11.95,2.64,13.72,7.34,2.6,6.93-3.73,15.71-14.12,19.61a28.07,28.07,0,0,1-9.82,1.85Z"/><circle class="cls-4" cx="190.5" cy="292.5" r="12.5"/><path class="cls-3" d="M190.5,284a8.5,8.5,0,1,1-8.5,8.5,8.51,8.51,0,0,1,8.5-8.5m0-8A16.5,16.5,0,1,0,207,292.5,16.5,16.5,0,0,0,190.5,276Z"/><circle class="cls-5" cx="235.5" cy="315.5" r="17.5"/><path class="cls-3" d="M235.5,302A13.5,13.5,0,1,1,222,315.5,13.49,13.49,0,0,1,235.5,302m0-8A21.5,21.5,0,1,0,257,315.5,21.52,21.52,0,0,0,235.5,294Z"/><circle class="cls-6" cx="285" cy="280" r="24"/></g></g></svg>