<svg xmlns="http://www.w3.org/2000/svg" viewBox="0 0 500 500"><defs><style>.cls-1{fill:#52e2de;}.cls-2{fill:#2fa3d1;}.cls-3{fill:#422d59;}.cls-4{fill:#55bf1d;}.cls-4,.cls-5,.cls-6{stroke:#422d59;stroke-miterlimit:10;stroke-width:8px;}.cls-5{fill:#db7112;}.cls-6{fill:#e5b92c;}</style></defs><g id="BG"><rect class="cls-1" width="500" height="500"/></g><g id="Слой_1" data-name="Слой 1"><g id="gamepad"><path class="cls-2" d="M325.5,337C302.61,337,284,311.21,284,279.5a7.32,7.32,0,0,0-2.51-5.49,8.25,8.25,0,0,0-5.44-2H223.45a8.21,8.21,0,0,0-5.82,2.37,7.14,7.14,0,0,0-2.12,5.14V280c0,31.43-18.62,57-41.51,57s-41.5-25.57-41.5-57a72.47,72.47,0,0,1,7-31.51l.15-.29,26-87.08c.41-.91,4.25-3.12,9.75-3.12H324.76c5.5,0,9.33,2.21,9.76,3.15l26.32,88.29.1.23A74.32,74.32,0,0,1,367,279.5C367,311.21,348.38,337,325.5,337Z"/><path class="cls-3" d="M324.76,162a13.59,13.59,0,0,1,6.24,1.36l25.93,87,.15.48.2.46A70.45,70.45,0,0,1,363,279.5c0,14.73-4.18,28.48-11.76,38.73C344.19,327.75,335.05,333,325.5,333s-18.7-5.25-25.75-14.77C292.17,308,288,294.23,288,279.47a11.33,11.33,0,0,0-3.86-8.46,12.24,12.24,0,0,0-8.09-3H223.45a12.29,12.29,0,0,0-8.66,3.55,11.14,11.14,0,0,0-3.28,8V280c0,14.58-4.17,28.2-11.74,38.35C192.72,327.8,183.57,333,174,333s-18.71-5.2-25.76-14.65C140.67,308.2,136.5,294.58,136.5,280a68.43,68.43,0,0,1,6.56-29.76l.29-.59.18-.62,25.55-85.67a13.56,13.56,0,0,1,6.24-1.36H324.76m0-8H175.32c-6.49,0-12.59,2.66-13.58,6l-25.87,86.76A76.22,76.22,0,0,0,128.5,280c0,33.69,20.37,61,45.5,61s45.51-27.31,45.51-61v-.53a3.7,3.7,0,0,1,3.94-3.47H276a3.73,3.73,0,0,1,3.95,3.46v0c0,34,20.37,61.5,45.51,61.5S371,313.47,371,279.5a78.2,78.2,0,0,0-6.4-31.45L338.34,160c-1-3.32-7.09-6-13.58-6Z"/><circle class="cls-4" cx="192.5" cy="190.5" r="12.5"/><circle class="cls-4" cx="320.5" cy="237.5" r="12.5"/><circle class="cls-5" cx="220.5" cy="238.5" r="16.5"/><circle class="cls-6" cx="274" cy="184" r="4"/><circle class="cls-6" cx="259" cy="201" r="4"/><circle class="cls-6" cx="274" cy="218" r="4"/><circle class="cls-6" cx="289" cy="201" r="4"/></g></g></svg>