<svg xmlns="http://www.w3.org/2000/svg" viewBox="0 0 500 500"><defs><style>.cls-1{fill:#52e2de;}.cls-2{fill:#34839b;}.cls-3{fill:#422d59;}.cls-4{fill:#b5611c;}.cls-5{fill:#2fa3d1;}.cls-6{fill:#db7112;}.cls-7{fill:#e5b92c;}</style></defs><g id="BG"><rect class="cls-1" width="500" height="500"/></g><g id="Слой_1" data-name="Слой 1"><g id="rackets"><path class="cls-2" d="M278.93,313c-18.33,0-35.5-6.47-48.36-18.22-15.19-13.88-23.28-33.65-22.79-55.66.49-21.76,9.35-43.13,24.93-60.19,17.86-19.54,42.22-30.75,66.84-30.75,18.33,0,35.5,6.47,48.35,18.21C363.1,180.25,371.19,200,370.69,222c-.49,21.76-9.34,43.13-24.93,60.18C327.9,301.76,303.54,313,278.93,313Z"/><path class="cls-3" d="M299.55,153.15c16.57,0,32.53,5.52,45,16.9,29.18,26.67,28.08,75.37-2.46,108.79C324.57,298,301.19,308,278.93,308c-16.58,0-32.53-5.53-45-16.91-29.18-26.66-28.08-75.37,2.45-108.79,17.51-19.15,40.89-29.12,63.15-29.12m0-10h0c-26,0-51.72,11.8-70.53,32.38C212.62,193.48,203.3,216,202.78,239c-.53,23.48,8.15,44.6,24.42,59.47C241,311,259.35,318,278.93,318c26,0,51.72-11.81,70.52-32.38,16.4-17.95,25.72-40.48,26.24-63.45.53-23.47-8.14-44.59-24.41-59.47-13.78-12.59-32.15-19.52-51.73-19.52Z"/><path class="cls-4" d="M194.46,359.23a2.21,2.21,0,0,1-1.51-.58L170.4,338a2.24,2.24,0,0,1-.15-3.16l43.93-48.06L240,310.44l-43.92,48.07A2.23,2.23,0,0,1,194.46,359.23Z"/><path class="cls-3" d="M214.5,293.88,233,310.76l-38.69,42.33-18.47-16.88,38.69-42.33m-.64-14.13-47.3,51.76a7.24,7.24,0,0,0,.46,10.22l22.56,20.61a7.24,7.24,0,0,0,10.22-.46l47.29-51.76-33.23-30.37Z"/><path class="cls-5" d="M252.56,312.51c-18.33,0-35.5-6.47-48.36-18.22-15.19-13.88-23.29-33.65-22.79-55.67.49-21.75,9.35-43.13,24.93-60.18,17.86-19.54,42.22-30.75,66.84-30.75,18.32,0,35.5,6.47,48.35,18.21,31.17,28.48,30.21,80.45-2.14,115.85C301.53,301.3,277.17,312.51,252.56,312.51Z"/><path class="cls-3" d="M273.18,152.69c16.57,0,32.53,5.52,45,16.9,29.18,26.67,28.08,75.37-2.46,108.79-17.5,19.15-40.88,29.13-63.14,29.13-16.58,0-32.53-5.53-45-16.91C178.4,263.93,179.5,215.23,210,181.81c17.51-19.15,40.89-29.12,63.15-29.12m0-10h0c-26,0-51.72,11.8-70.53,32.38-16.4,17.94-25.72,40.48-26.24,63.44-.53,23.48,8.14,44.6,24.42,59.47,13.78,12.59,32.15,19.53,51.73,19.53,26,0,51.72-11.81,70.52-32.39,16.4-17.94,25.72-40.47,26.24-63.44.53-23.48-8.14-44.6-24.42-59.47-13.77-12.59-32.14-19.52-51.72-19.52Z"/><path class="cls-6" d="M168.09,358.77a2.21,2.21,0,0,1-1.51-.58L144,337.57a2.24,2.24,0,0,1-.14-3.15l43.93-48.06L213.66,310l-43.93,48.07A2.19,2.19,0,0,1,168.09,358.77Z"/><path class="cls-3" d="M188.13,293.42,206.6,310.3l-38.69,42.33-18.47-16.88,38.69-42.33m-.64-14.13-47.3,51.76a7.24,7.24,0,0,0,.46,10.22l22.56,20.61a7.24,7.24,0,0,0,10.22-.46l47.29-51.76-33.23-30.37Z"/><path class="cls-7" d="M261.08,209.86A17.93,17.93,0,1,1,279,191.93,17.95,17.95,0,0,1,261.08,209.86Z"/><path class="cls-3" d="M261.08,178a13.93,13.93,0,1,1-13.93,13.92A13.94,13.94,0,0,1,261.08,178m0-8A21.93,21.93,0,1,0,283,191.93,21.92,21.92,0,0,0,261.08,170Z"/></g></g></svg>