<svg xmlns="http://www.w3.org/2000/svg" viewBox="0 0 500 500"><defs><style>.cls-1{fill:#52e2de;}.cls-2{fill:#db7112;}.cls-3,.cls-6{fill:#422d59;}.cls-4{fill:none;stroke:#422d59;stroke-miterlimit:10;stroke-width:10px;}.cls-5{fill:#2fa3d1;}.cls-6{font-size:21.74px;font-family:ClarendonBT-Black, Clarendon Blk BT;font-weight:800;}</style></defs><g id="BG"><rect class="cls-1" width="500" height="500"/></g><g id="Слой_1" data-name="Слой 1"><g id="ball"><circle class="cls-2" cx="249.8" cy="263.2" r="112.2"/><path class="cls-3" d="M249.8,156A107.21,107.21,0,1,1,174,187.4,106.46,106.46,0,0,1,249.8,156m0-10A117.2,117.2,0,1,0,367,263.2,117.2,117.2,0,0,0,249.8,146Z"/><line class="cls-4" x1="137.62" y1="263.2" x2="361.98" y2="263.2"/><path class="cls-4" d="M145.84,220.67s99.24-63.33,207.93,0"/><path class="cls-4" d="M145.84,306.19s99.24,63.33,207.93,0"/><path class="cls-5" d="M261.82,249.85a4,4,0,0,1-2.35-.76l-9.4-6.83-9.4,6.83a4,4,0,0,1-6.16-4.47l3.59-11.05-9.4-6.83a4,4,0,0,1,2.36-7.24h11.61l3.59-11.05a4,4,0,0,1,7.61,0l3.59,11.05h11.62a4,4,0,0,1,2.35,7.24l-9.4,6.83,3.59,11.05a4,4,0,0,1-3.8,5.23Z"/><path class="cls-3" d="M250.07,209.69l4.49,13.81h14.52L257.33,232l4.49,13.81-11.75-8.53-11.75,8.53L242.81,232l-11.75-8.54h14.52l4.49-13.81m19,13.81h0m-19-21.81a8,8,0,0,0-7.61,5.53l-2.69,8.28h-8.71A8,8,0,0,0,226.35,230l7.05,5.12-2.69,8.29A8,8,0,0,0,243,252.32l7-5.12,7.05,5.12a8,8,0,0,0,12.31-8.94l-2.7-8.29,6.94-5a8,8,0,0,0-4.59-14.55h-8.71l-2.69-8.28a8,8,0,0,0-7.61-5.53Z"/><text class="cls-6" transform="translate(170.09 297.37)">BASKETBALL</text></g></g></svg>