<svg xmlns="http://www.w3.org/2000/svg" viewBox="0 0 500 500"><defs><style>.cls-1{fill:#52e2de;}.cls-2{fill:#db7112;stroke-linecap:round;stroke-linejoin:round;stroke-width:10px;}.cls-2,.cls-6{stroke:#422d59;}.cls-3{fill:#34839b;}.cls-4{fill:#2fa3d1;}.cls-5{fill:#422d59;}.cls-6{fill:none;stroke-miterlimit:10;stroke-width:3px;}</style></defs><g id="BG"><rect class="cls-1" width="500" height="500"/></g><g id="Слой_1" data-name="Слой 1"><g id="book"><rect class="cls-2" x="194.92" y="142" width="127.08" height="181.25"/><rect class="cls-3" x="184.5" y="145.13" width="134.38" height="188.54"/><rect class="cls-2" x="172" y="163.88" width="127.08" height="181.25"/><line class="cls-2" x1="172" y1="163.88" x2="194.92" y2="142"/><line class="cls-2" x1="299.08" y1="345.12" x2="322" y2="323.25"/><line class="cls-2" x1="299.08" y1="163.88" x2="322" y2="142"/><rect class="cls-4" x="198" y="220.32" width="76" height="47.37" rx="4"/><path class="cls-5" d="M270,224.32v39.36H202V224.32h68m0-8H202a8,8,0,0,0-8,8v39.36a8,8,0,0,0,8,8h68a8,8,0,0,0,8-8V224.32a8,8,0,0,0-8-8Z"/><line class="cls-6" x1="308.17" y1="155.2" x2="308.17" y2="334.19"/><line class="cls-6" x1="314.75" y1="151.57" x2="314.75" y2="330.56"/><line class="cls-6" x1="183" y1="155" x2="308" y2="155"/><line class="cls-6" x1="187" y1="149" x2="312" y2="149"/></g></g></svg>